<?xml version="1.0" encoding="UTF-8"?>
<svg xmlns="http://www.w3.org/2000/svg" viewBox="0 0 1248 1248" width="1248" height="1248">
  <g transform="matrix(0.1,0,0,-0.1,0,1248)" fill="#000000">
    <path d="M5850 11079.1C4891 11003.9 4077.63 10713.9 3377 10197.5 3171 10045.7 2918.34 9825.12 2757.8 9657L2690 9586 4140 8142 5590 6698V4484C5590 3266 5586.4 2270 5582 2270 5553.18 2270 5323 2316.45 5205 2346.08 4235 2589.64 3372.48 3189.74 2835.02 3995 2261.77 4853.88 2048.74 5876 2219.98 6946 2292.47 7399 2465.27 7878.89 2709.67 8306 2760.03 8394 2939.14 8669.69 2997.49 8749 3008.4 8763.82 2974 8799.89 2729 9030.5 2574 9176.4 2444.41 9296.41 2440 9298.14 2430.34 9301.94 2318.11 9153 2222.89 9010 1765.6 8323.29 1484.72 7557 1394.51 6750 1372.6 6554 1364.15 6096 1378.83 5900 1418.15 5375 1536.78 4870.16 1732.47 4395 2086.66 3535 2712.21 2768.82 3510 2217.88 4264.08 1697.12 5274 1391.12 6255 1386.16L6485 1385 6487.5 2670 6490 3955 6692 4145.59C6947 4386.19 6968.83 4405.09 6978.86 4394 6983.34 4389.05 7060.8 4304 7151 4205 7241.5 4105.67 7424.8 3904 7560 3755 7694.98 3606.24 7933.22 3344 8090.54 3171 8376.99 2856 8406.24 2822.3 8399 2815.67 8396.79 2813.64 8332 2778.3 8254 2736.57 8117.38 2663.49 7918 2571.19 7766 2510.67 7548.1 2423.91 7191 2322.21 6972 2284.54L6870 2267V1853.5C6870 1450.5 6870.48 1440 6889 1440 6935.91 1440 7157 1473.07 7295 1500.73 8007 1643.43 8713.59 1980.07 9285 2448.82 9403 2545.63 9649.63 2770.42 9666.98 2797 9680.04 2817 9680.24 2822.28 9668.5 2837.5 9661.08 2847.12 9209.09 3341 8665 3934 8120.91 4527 7663.06 5027.19 7648.5 5044.5L7622 5076 7903.5 5396C8058.32 5572 8351.5 5905 8555 6136 8758.5 6367 9037.5 6684.02 9175 6840.5 9312.08 6996.5 9440.13 7141.94 9458.5 7162.5L9492 7200H8867.5 8243L7732.51 6617C6965.45 5741 6506.16 5221.54 6498 5220.76 6493.6 5220.34 6490 5448 6490 5727V6234L6678 6424.5C6781.62 6529.5 7054.37 6808 7285.69 7045 8725.31 8520 8902.84 8701.38 9360.72 9165 9523.67 9330 9685.57 9495.38 9720.5 9532.5L9784 9600 9635 9747.67C8997.2 10379.8 8181 10805.7 7247 10993.9 7084.33 11026.7 6787 11066.5 6605 11079.8 6443 11091.6 6004.05 11091.2 5850 11079.1ZM6630 10280C7164 10231.4 7648.54 10097.6 8080 9879.6 8210 9813.91 8430.36 9681.7 8465 9648.6 8470.52 9643.32 8441.23 9606 8389.18 9552 8027.6 9176.84 6853.21 7969 6464.01 7572L6265 7369 5122.5 8505.5C4494.5 9130.2 3980 9645.15 3980 9649 3980 9658.56 4169 9779.15 4286 9844.24 4723.16 10087.4 5320 10250 5923 10290.1 6078.42 10300.5 6466 10294.9 6630 10280"/>
    <path d="M9758 9012.5 9481 8735 9536.56 8665C9619.57 8560.41 9788.34 8302 9863.77 8164 10089 7751.85 10243.4 7271 10312.9 6765 10342.8 6547.13 10345.2 5996 10317.2 5771 10225.4 5034 9975.3 4421.53 9513.39 3803L9429 3690 9449 3662.5C9460.02 3647.35 9585.5 3518.95 9728.5 3376.5L9988 3118 10062.6 3212C10506.2 3770.97 10824.6 4424 10990.3 5115 11126 5681.2 11156.2 6327 11074.2 6915 10974.3 7632 10703 8347.18 10304.2 8945 10210.8 9085 10055 9290 10042 9290 10038.1 9290 9910.73 9165.5 9758 9012.5"/>
  </g>
</svg>
